<svg width="54" height="50" viewBox="0 0 54 50" fill="none" xmlns="http://www.w3.org/2000/svg">
<g clip-path="url(#clip0_10_889)">
<path d="M36.5002 13.5001H33.3335C33.3335 10.0009 30.4993 7.16675 27.0002 7.16675C23.501 7.16675 20.6668 10.0009 20.6668 13.5001H17.5002C15.7585 13.5001 14.3335 14.9251 14.3335 16.6667V35.6668C14.3335 37.4084 15.7585 38.8334 17.5002 38.8334H36.5002C38.2418 38.8334 39.6668 37.4084 39.6668 35.6668V16.6667C39.6668 14.9251 38.2418 13.5001 36.5002 13.5001ZM27.0002 10.3334C28.7418 10.3334 30.1668 11.7584 30.1668 13.5001H23.8335C23.8335 11.7584 25.2585 10.3334 27.0002 10.3334ZM36.5002 35.6668H17.5002V16.6667H20.6668V19.8334C20.6668 20.7042 21.3793 21.4167 22.2502 21.4167C23.121 21.4167 23.8335 20.7042 23.8335 19.8334V16.6667H30.1668V19.8334C30.1668 20.7042 30.8793 21.4167 31.7502 21.4167C32.621 21.4167 33.3335 20.7042 33.3335 19.8334V16.6667H36.5002V35.6668Z" fill="black"/>
</g>
<defs>
<clipPath id="clip0_10_889">
<rect width="38" height="38" fill="white" transform="translate(8 4)"/>
</clipPath>
</defs>
</svg>
