<svg width="38" height="38" viewBox="0 0 38 38" fill="none" xmlns="http://www.w3.org/2000/svg">
<g id="Group">
<path id="Compras" d="M28.5 9.49999H25.3334C25.3334 6.00082 22.4992 3.16666 19 3.16666C15.5009 3.16666 12.6667 6.00082 12.6667 9.49999H9.50004C7.75837 9.49999 6.33337 10.925 6.33337 12.6667V31.6667C6.33337 33.4083 7.75837 34.8333 9.50004 34.8333H28.5C30.2417 34.8333 31.6667 33.4083 31.6667 31.6667V12.6667C31.6667 10.925 30.2417 9.49999 28.5 9.49999ZM19 6.33332C20.7417 6.33332 22.1667 7.75832 22.1667 9.49999H15.8334C15.8334 7.75832 17.2584 6.33332 19 6.33332ZM28.5 31.6667H9.50004V12.6667H12.6667V15.8333C12.6667 16.7042 13.3792 17.4167 14.25 17.4167C15.1209 17.4167 15.8334 16.7042 15.8334 15.8333V12.6667H22.1667V15.8333C22.1667 16.7042 22.8792 17.4167 23.75 17.4167C24.6209 17.4167 25.3334 16.7042 25.3334 15.8333V12.6667H28.5V31.6667Z" fill="#1e1e1e"/>
</g>
</svg>
